<?xml version="1.0" encoding="utf-8"?>
<!-- Generator: Adobe Illustrator 16.0.4, SVG Export Plug-In . SVG Version: 6.00 Build 0)  -->
<!DOCTYPE svg PUBLIC "-//W3C//DTD SVG 1.1//EN" "http://www.w3.org/Graphics/SVG/1.1/DTD/svg11.dtd">
<svg version="1.1" id="Layer_1" xmlns="http://www.w3.org/2000/svg" xmlns:xlink="http://www.w3.org/1999/xlink" x="0px" y="0px"
	 width="689px" height="626px" viewBox="0 0 689 626" enable-background="new 0 0 689 626" xml:space="preserve">
<g>
	<defs>
		<rect id="SVGID_1_" x="10" y="20" width="1190" height="606"/>
	</defs>
	<clipPath id="SVGID_2_">
		<use xlink:href="#SVGID_1_"  overflow="visible"/>
	</clipPath>
	<g clip-path="url(#SVGID_2_)">
		<text transform="matrix(1 0 0 1 10 57)" font-family="'Helvetica-Bold'" font-size="35">Insertion::7:54,673,845;len=596</text>
	</g>
</g>
<g>
	<defs>
		<rect id="SVGID_3_" x="10" y="67" width="1190" height="559"/>
	</defs>
	<clipPath id="SVGID_4_">
		<use xlink:href="#SVGID_3_"  overflow="visible"/>
	</clipPath>
	<g clip-path="url(#SVGID_4_)">
		<text transform="matrix(1 0 0 1 10 85)" font-family="'Helvetica-Bold'" font-size="16">Sample</text>
	</g>
</g>
<g>
	<defs>
		<rect id="SVGID_5_" x="280" y="67" width="920" height="559"/>
	</defs>
	<clipPath id="SVGID_6_">
		<use xlink:href="#SVGID_5_"  overflow="visible"/>
	</clipPath>
	<g clip-path="url(#SVGID_6_)">
		<text transform="matrix(1 0 0 1 280 85)" font-family="'Helvetica-Bold'" font-size="16">Alt</text>
	</g>
</g>
<g>
	<defs>
		<rect id="SVGID_7_" x="343" y="67" width="857" height="559"/>
	</defs>
	<clipPath id="SVGID_8_">
		<use xlink:href="#SVGID_7_"  overflow="visible"/>
	</clipPath>
	<g clip-path="url(#SVGID_8_)">
		<text transform="matrix(1 0 0 1 343 85)" font-family="'Helvetica-Bold'" font-size="16">Ref</text>
	</g>
</g>
<g>
	<defs>
		<rect id="SVGID_9_" x="406" y="67" width="794" height="559"/>
	</defs>
	<clipPath id="SVGID_10_">
		<use xlink:href="#SVGID_9_"  overflow="visible"/>
	</clipPath>
	<g clip-path="url(#SVGID_10_)">
		<text transform="matrix(1 0 0 1 406 85)" font-family="'Helvetica-Bold'" font-size="16">Amb</text>
	</g>
</g>
<g>
	<defs>
		<rect id="SVGID_11_" x="10" y="89.5" width="1190" height="536.5"/>
	</defs>
	<clipPath id="SVGID_12_">
		<use xlink:href="#SVGID_11_"  overflow="visible"/>
	</clipPath>
	<g clip-path="url(#SVGID_12_)">
		<text transform="matrix(1 0 0 1 10 107.5)" font-family="'Helvetica-Bold'" font-size="16">NA12878_pacbio_mt_sinai</text>
	</g>
</g>
<g>
	<defs>
		<rect id="SVGID_13_" x="280" y="89.5" width="920" height="536.5"/>
	</defs>
	<clipPath id="SVGID_14_">
		<use xlink:href="#SVGID_13_"  overflow="visible"/>
	</clipPath>
	<g clip-path="url(#SVGID_14_)">
		<text transform="matrix(1 0 0 1 280 107.5)" font-family="'Helvetica'" font-size="16">23</text>
	</g>
</g>
<g>
	<defs>
		<rect id="SVGID_15_" x="343" y="89.5" width="857" height="536.5"/>
	</defs>
	<clipPath id="SVGID_16_">
		<use xlink:href="#SVGID_15_"  overflow="visible"/>
	</clipPath>
	<g clip-path="url(#SVGID_16_)">
		<text transform="matrix(1 0 0 1 343 107.5)" font-family="'Helvetica'" font-size="16">16</text>
	</g>
</g>
<g>
	<defs>
		<rect id="SVGID_17_" x="406" y="89.5" width="794" height="536.5"/>
	</defs>
	<clipPath id="SVGID_18_">
		<use xlink:href="#SVGID_17_"  overflow="visible"/>
	</clipPath>
	<g clip-path="url(#SVGID_18_)">
		<text transform="matrix(1 0 0 1 406 107.5)" font-family="'Helvetica'" font-size="16">406</text>
	</g>
</g>
<g>
	<defs>
		<rect id="SVGID_19_" x="10" y="112" width="1190" height="514"/>
	</defs>
	<clipPath id="SVGID_20_">
		<use xlink:href="#SVGID_19_"  overflow="visible"/>
	</clipPath>
	<g clip-path="url(#SVGID_20_)">
		<text transform="matrix(1 0 0 1 10 130)"><tspan x="0" y="0" font-family="'Helvetica-Bold'" font-size="16" letter-spacing="-1">T</tspan><tspan x="8.605" y="0" font-family="'Helvetica-Bold'" font-size="16">otal</tspan></text>
	</g>
</g>
<g>
	<defs>
		<rect id="SVGID_21_" x="280" y="112" width="920" height="514"/>
	</defs>
	<clipPath id="SVGID_22_">
		<use xlink:href="#SVGID_21_"  overflow="visible"/>
	</clipPath>
	<g clip-path="url(#SVGID_22_)">
		<text transform="matrix(1 0 0 1 280 130)" font-family="'Helvetica'" font-size="16">23</text>
	</g>
</g>
<g>
	<defs>
		<rect id="SVGID_23_" x="343" y="112" width="857" height="514"/>
	</defs>
	<clipPath id="SVGID_24_">
		<use xlink:href="#SVGID_23_"  overflow="visible"/>
	</clipPath>
	<g clip-path="url(#SVGID_24_)">
		<text transform="matrix(1 0 0 1 343 130)" font-family="'Helvetica'" font-size="16">16</text>
	</g>
</g>
<g>
	<defs>
		<rect id="SVGID_25_" x="406" y="112" width="794" height="514"/>
	</defs>
	<clipPath id="SVGID_26_">
		<use xlink:href="#SVGID_25_"  overflow="visible"/>
	</clipPath>
	<g clip-path="url(#SVGID_26_)">
		<text transform="matrix(1 0 0 1 406 130)" font-family="'Helvetica'" font-size="16">406</text>
	</g>
</g>
<g>
	<defs>
		<rect id="SVGID_27_" x="10" y="144.5" width="1190" height="481.5"/>
	</defs>
	<clipPath id="SVGID_28_">
		<use xlink:href="#SVGID_27_"  overflow="visible"/>
	</clipPath>
	<g clip-path="url(#SVGID_28_)">
		<text transform="matrix(1 0 0 1 10 176.5)" font-family="'Helvetica'" font-size="30">Alternate Allele</text>
	</g>
</g>
<g>
	<defs>
		<rect id="SVGID_29_" x="10" y="176.5" width="1190" height="449.5"/>
	</defs>
	<clipPath id="SVGID_30_">
		<use xlink:href="#SVGID_29_"  overflow="visible"/>
	</clipPath>
	<g clip-path="url(#SVGID_30_)">
		<text transform="matrix(1 0 0 1 10 196.5)" font-family="'Helvetica'" font-size="18">NA12878_pacbio_mt_sinai</text>
	</g>
</g>
<g>
	<defs>
		<rect id="SVGID_31_" x="10" y="208.5" width="671" height="86"/>
	</defs>
	<clipPath id="SVGID_32_">
		<use xlink:href="#SVGID_31_"  overflow="visible"/>
	</clipPath>
	<g opacity="0" clip-path="url(#SVGID_32_)" enable-background="new    ">
		<g>
			<defs>
				<rect id="SVGID_33_" x="-333" y="208" width="1200" height="87"/>
			</defs>
			<clipPath id="SVGID_34_">
				<use xlink:href="#SVGID_33_"  overflow="visible"/>
			</clipPath>
			<g clip-path="url(#SVGID_34_)">
				<defs>
					<rect id="SVGID_35_" x="-333" y="208" width="1200" height="87"/>
				</defs>
				<clipPath id="SVGID_36_">
					<use xlink:href="#SVGID_35_"  overflow="visible"/>
				</clipPath>
				<rect x="-747.613" y="208.5" clip-path="url(#SVGID_36_)" width="2090.418" height="86"/>
			</g>
		</g>
	</g>
	<rect x="-278.455" y="284.5" clip-path="url(#SVGID_32_)" fill="#DDDDDD" width="653.291" height="2.5"/>
	<rect x="-278.455" y="284.5" clip-path="url(#SVGID_32_)" fill="#800080" width="653.291" height="2.5"/>
	<rect x="-192.164" y="281.5" clip-path="url(#SVGID_32_)" fill="#DDDDDD" width="726.254" height="2.5"/>
	<rect x="-192.164" y="281.5" clip-path="url(#SVGID_32_)" fill="#800080" width="726.254" height="2.5"/>
	<rect x="73.54" y="278.5" clip-path="url(#SVGID_32_)" fill="#DDDDDD" width="268.202" height="2.5"/>
	<rect x="73.54" y="278.5" clip-path="url(#SVGID_32_)" fill="#FF0000" width="268.202" height="2.5"/>
	<rect x="110.41" y="275.5" clip-path="url(#SVGID_32_)" fill="#DDDDDD" width="314.513" height="2.5"/>
	<rect x="110.41" y="275.5" clip-path="url(#SVGID_32_)" fill="#FF0000" width="314.513" height="2.5"/>
	<rect x="115.519" y="272.5" clip-path="url(#SVGID_32_)" fill="#DDDDDD" width="367.431" height="2.5"/>
	<rect x="115.519" y="272.5" clip-path="url(#SVGID_32_)" fill="#FF0000" width="367.431" height="2.5"/>
	<rect x="138.341" y="269.5" clip-path="url(#SVGID_32_)" fill="#DDDDDD" width="178.023" height="2.5"/>
	<rect x="138.341" y="269.5" clip-path="url(#SVGID_32_)" fill="#FF0000" width="178.023" height="2.5"/>
	<rect x="185.762" y="266.5" clip-path="url(#SVGID_32_)" fill="#DDDDDD" width="120.607" height="2.5"/>
	<rect x="185.762" y="266.5" clip-path="url(#SVGID_32_)" fill="#800080" width="120.607" height="2.5"/>
	<rect x="185.762" y="263.5" clip-path="url(#SVGID_32_)" fill="#DDDDDD" width="157.422" height="2.5"/>
	<rect x="185.762" y="263.5" clip-path="url(#SVGID_32_)" fill="#FF0000" width="157.422" height="2.5"/>
	<rect x="185.762" y="260.5" clip-path="url(#SVGID_32_)" fill="#DDDDDD" width="157.478" height="2.5"/>
	<rect x="185.762" y="260.5" clip-path="url(#SVGID_32_)" fill="#FF0000" width="157.478" height="2.5"/>
	<rect x="185.762" y="257.5" clip-path="url(#SVGID_32_)" fill="#DDDDDD" width="157.534" height="2.5"/>
	<rect x="185.762" y="257.5" clip-path="url(#SVGID_32_)" fill="#800080" width="157.534" height="2.5"/>
	<rect x="195.313" y="254.5" clip-path="url(#SVGID_32_)" fill="#DDDDDD" width="182.744" height="2.5"/>
	<rect x="195.313" y="254.5" clip-path="url(#SVGID_32_)" fill="#800080" width="182.744" height="2.5"/>
	<rect x="203.975" y="251.5" clip-path="url(#SVGID_32_)" fill="#DDDDDD" width="608.479" height="2.5"/>
	<rect x="203.975" y="251.5" clip-path="url(#SVGID_32_)" fill="#FF0000" width="608.479" height="2.5"/>
	<rect x="257.116" y="248.5" clip-path="url(#SVGID_32_)" fill="#DDDDDD" width="171.86" height="2.5"/>
	<rect x="257.116" y="248.5" clip-path="url(#SVGID_32_)" fill="#800080" width="171.86" height="2.5"/>
	<rect x="262.558" y="245.5" clip-path="url(#SVGID_32_)" fill="#DDDDDD" width="80.627" height="2.5"/>
	<rect x="262.558" y="245.5" clip-path="url(#SVGID_32_)" fill="#800080" width="80.627" height="2.5"/>
	<rect x="267.944" y="242.5" clip-path="url(#SVGID_32_)" fill="#DDDDDD" width="202.845" height="2.5"/>
	<rect x="267.944" y="242.5" clip-path="url(#SVGID_32_)" fill="#800080" width="202.845" height="2.5"/>
	<rect x="282.604" y="239.5" clip-path="url(#SVGID_32_)" fill="#DDDDDD" width="63.302" height="2.5"/>
	<rect x="282.604" y="239.5" clip-path="url(#SVGID_32_)" fill="#800080" width="63.302" height="2.5"/>
	<rect x="282.604" y="236.5" clip-path="url(#SVGID_32_)" fill="#DDDDDD" width="98.118" height="2.5"/>
	<rect x="282.604" y="236.5" clip-path="url(#SVGID_32_)" fill="#FF0000" width="98.118" height="2.5"/>
	<rect x="282.604" y="233.5" clip-path="url(#SVGID_32_)" fill="#DDDDDD" width="98.118" height="2.5"/>
	<rect x="282.604" y="233.5" clip-path="url(#SVGID_32_)" fill="#800080" width="98.118" height="2.5"/>
	<rect x="282.604" y="230.5" clip-path="url(#SVGID_32_)" fill="#DDDDDD" width="98.229" height="2.5"/>
	<rect x="282.604" y="230.5" clip-path="url(#SVGID_32_)" fill="#800080" width="98.229" height="2.5"/>
	<rect x="282.715" y="227.5" clip-path="url(#SVGID_32_)" fill="#DDDDDD" width="98.007" height="2.5"/>
	<rect x="282.715" y="227.5" clip-path="url(#SVGID_32_)" fill="#FF0000" width="98.007" height="2.5"/>
	<rect x="294.875" y="224.5" clip-path="url(#SVGID_32_)" fill="#DDDDDD" width="129.437" height="2.5"/>
	<rect x="294.875" y="224.5" clip-path="url(#SVGID_32_)" fill="#FF0000" width="129.437" height="2.5"/>
	<rect x="294.931" y="221.5" clip-path="url(#SVGID_32_)" fill="#DDDDDD" width="129.325" height="2.5"/>
	<rect x="294.931" y="221.5" clip-path="url(#SVGID_32_)" fill="#800080" width="129.325" height="2.5"/>
	<rect x="307.092" y="266.5" clip-path="url(#SVGID_32_)" fill="#DDDDDD" width="178.079" height="2.5"/>
	<rect x="307.092" y="266.5" clip-path="url(#SVGID_32_)" fill="#800080" width="178.079" height="2.5"/>
	<line clip-path="url(#SVGID_32_)" x1="280.993" y1="294.5" x2="280.993" y2="208.5"/>
	
		<line clip-path="url(#SVGID_32_)" fill="none" stroke="#000000" stroke-width="2" x1="280.993" y1="294.5" x2="280.993" y2="208.5"/>
	<line clip-path="url(#SVGID_32_)" x1="314.088" y1="294.5" x2="314.088" y2="208.5"/>
	
		<line clip-path="url(#SVGID_32_)" fill="none" stroke="#000000" stroke-width="2" x1="314.088" y1="294.5" x2="314.088" y2="208.5"/>
</g>
<g>
	<defs>
		<rect id="SVGID_37_" x="10" y="294.5" width="671" height="75"/>
	</defs>
	<clipPath id="SVGID_38_">
		<use xlink:href="#SVGID_37_"  overflow="visible"/>
	</clipPath>
	<rect x="-192.33" y="329.5" clip-path="url(#SVGID_38_)" width="1" height="15"/>
	<g clip-path="url(#SVGID_38_)">
		<text transform="matrix(1 0 0 1 -221.8525 365.5)" font-family="'Helvetica'" font-size="18">10.0KB</text>
	</g>
	<rect x="85.312" y="329.5" clip-path="url(#SVGID_38_)" width="1" height="15"/>
	<g clip-path="url(#SVGID_38_)">
		<text transform="matrix(1 0 0 1 55.7891 365.5)" font-family="'Helvetica-Bold'" font-size="18">15.0KB</text>
	</g>
	<rect x="362.953" y="329.5" clip-path="url(#SVGID_38_)" width="1" height="15"/>
	<g clip-path="url(#SVGID_38_)">
		<text transform="matrix(1 0 0 1 333.4307 365.5)" font-family="'Helvetica-Bold'" font-size="18">20.0KB</text>
	</g>
	<rect x="640.595" y="329.5" clip-path="url(#SVGID_38_)" width="1" height="15"/>
	<g clip-path="url(#SVGID_38_)">
		<text transform="matrix(1 0 0 1 611.0723 365.5)" font-family="'Helvetica-Bold'" font-size="18">25.0KB</text>
	</g>
	<line clip-path="url(#SVGID_38_)" x1="-747.613" y1="329.5" x2="280.993" y2="329.5"/>
	
		<line clip-path="url(#SVGID_38_)" fill="none" stroke="#FF0000" stroke-width="8" x1="-747.613" y1="329.5" x2="280.993" y2="329.5"/>
	<line clip-path="url(#SVGID_38_)" x1="-747.613" y1="329.5" x2="280.993" y2="329.5"/>
	
		<line clip-path="url(#SVGID_38_)" fill="none" stroke="#FF0000" stroke-width="3" x1="-747.613" y1="329.5" x2="280.993" y2="329.5"/>
	<polygon clip-path="url(#SVGID_38_)" fill="#FF0000" points="-160.449,314.5 -130.449,329.5 -160.449,344.5 	"/>
	<polygon clip-path="url(#SVGID_38_)" fill="#FF0000" points="45.272,314.5 75.272,329.5 45.272,344.5 	"/>
	<polygon clip-path="url(#SVGID_38_)" fill="#FF0000" points="250.993,314.5 280.993,329.5 250.993,344.5 	"/>
	<line clip-path="url(#SVGID_38_)" x1="280.993" y1="329.5" x2="314.088" y2="329.5"/>
	
		<line clip-path="url(#SVGID_38_)" fill="none" stroke="#0000FF" stroke-width="8" x1="280.993" y1="329.5" x2="314.088" y2="329.5"/>
	<line clip-path="url(#SVGID_38_)" x1="280.993" y1="329.5" x2="314.088" y2="329.5"/>
	
		<line clip-path="url(#SVGID_38_)" fill="none" stroke="#0000FF" stroke-width="3" x1="280.993" y1="329.5" x2="314.088" y2="329.5"/>
	<polygon clip-path="url(#SVGID_38_)" fill="#0000FF" points="257.612,314.5 287.612,329.5 257.612,344.5 	"/>
	<polygon clip-path="url(#SVGID_38_)" fill="#0000FF" points="264.231,314.5 294.231,329.5 264.231,344.5 	"/>
	<polygon clip-path="url(#SVGID_38_)" fill="#0000FF" points="270.85,314.5 300.85,329.5 270.85,344.5 	"/>
	<polygon clip-path="url(#SVGID_38_)" fill="#0000FF" points="277.469,314.5 307.469,329.5 277.469,344.5 	"/>
	<polygon clip-path="url(#SVGID_38_)" fill="#0000FF" points="284.088,314.5 314.088,329.5 284.088,344.5 	"/>
	<line clip-path="url(#SVGID_38_)" x1="314.088" y1="329.5" x2="1342.694" y2="329.5"/>
	
		<line clip-path="url(#SVGID_38_)" fill="none" stroke="#808080" stroke-width="8" x1="314.088" y1="329.5" x2="1342.693" y2="329.5"/>
	<line clip-path="url(#SVGID_38_)" x1="314.088" y1="329.5" x2="1342.694" y2="329.5"/>
	
		<line clip-path="url(#SVGID_38_)" fill="none" stroke="#808080" stroke-width="3" x1="314.088" y1="329.5" x2="1342.693" y2="329.5"/>
	<polygon clip-path="url(#SVGID_38_)" fill="#808080" points="489.81,314.5 519.81,329.5 489.81,344.5 	"/>
	<polygon clip-path="url(#SVGID_38_)" fill="#808080" points="695.531,314.5 725.53,329.5 695.531,344.5 	"/>
	<line clip-path="url(#SVGID_38_)" x1="280.993" y1="314.5" x2="280.993" y2="349.5"/>
	
		<line clip-path="url(#SVGID_38_)" fill="none" stroke="#000000" stroke-width="2" x1="280.993" y1="314.5" x2="280.993" y2="349.5"/>
	<g clip-path="url(#SVGID_38_)">
		<text transform="matrix(1 0 0 1 238.4639 312.5)" font-family="'Helvetica'" font-size="18">breakpoint</text>
	</g>
	<line clip-path="url(#SVGID_38_)" x1="314.088" y1="314.5" x2="314.088" y2="349.5"/>
	
		<line clip-path="url(#SVGID_38_)" fill="none" stroke="#000000" stroke-width="2" x1="314.088" y1="314.5" x2="314.088" y2="349.5"/>
</g>
<g>
	<defs>
		<rect id="SVGID_39_" x="10" y="399.5" width="1190" height="226.5"/>
	</defs>
	<clipPath id="SVGID_40_">
		<use xlink:href="#SVGID_39_"  overflow="visible"/>
	</clipPath>
	<g clip-path="url(#SVGID_40_)">
		<text transform="matrix(1 0 0 1 10 431.5)" font-family="'Helvetica'" font-size="30">Reference Allele</text>
	</g>
</g>
<g>
	<defs>
		<rect id="SVGID_41_" x="10" y="431.5" width="1190" height="194.5"/>
	</defs>
	<clipPath id="SVGID_42_">
		<use xlink:href="#SVGID_41_"  overflow="visible"/>
	</clipPath>
	<g clip-path="url(#SVGID_42_)">
		<text transform="matrix(1 0 0 1 10 451.5)" font-family="'Helvetica'" font-size="18">NA12878_pacbio_mt_sinai</text>
	</g>
</g>
<g>
	<defs>
		<rect id="SVGID_43_" x="10" y="463.5" width="671" height="68"/>
	</defs>
	<clipPath id="SVGID_44_">
		<use xlink:href="#SVGID_43_"  overflow="visible"/>
	</clipPath>
	<g opacity="0" clip-path="url(#SVGID_44_)" enable-background="new    ">
		<g>
			<defs>
				<rect id="SVGID_45_" x="-333" y="463" width="1200" height="69"/>
			</defs>
			<clipPath id="SVGID_46_">
				<use xlink:href="#SVGID_45_"  overflow="visible"/>
			</clipPath>
			<g clip-path="url(#SVGID_46_)">
				<defs>
					<rect id="SVGID_47_" x="-333" y="463" width="1200" height="69"/>
				</defs>
				<clipPath id="SVGID_48_">
					<use xlink:href="#SVGID_47_"  overflow="visible"/>
				</clipPath>
				<rect x="-609.327" y="463.5" clip-path="url(#SVGID_48_)" width="1973.958" height="68"/>
			</g>
		</g>
	</g>
	<rect x="-278.455" y="521.5" clip-path="url(#SVGID_44_)" fill="#DDDDDD" width="893.053" height="2.5"/>
	<rect x="-278.455" y="521.5" clip-path="url(#SVGID_44_)" fill="#800080" width="893.053" height="2.5"/>
	<rect x="39.873" y="518.5" clip-path="url(#SVGID_44_)" fill="#DDDDDD" width="720.444" height="2.5"/>
	<rect x="39.873" y="518.5" clip-path="url(#SVGID_44_)" fill="#FF0000" width="720.444" height="2.5"/>
	<rect x="126.415" y="515.5" clip-path="url(#SVGID_44_)" fill="#DDDDDD" width="640.625" height="2.5"/>
	<rect x="126.415" y="515.5" clip-path="url(#SVGID_44_)" fill="#800080" width="640.625" height="2.5"/>
	<rect x="154.151" y="512.5" clip-path="url(#SVGID_44_)" fill="#DDDDDD" width="243.853" height="2.5"/>
	<rect x="154.151" y="512.5" clip-path="url(#SVGID_44_)" fill="#800080" width="243.853" height="2.5"/>
	<rect x="195.384" y="509.5" clip-path="url(#SVGID_44_)" fill="#DDDDDD" width="400.053" height="2.5"/>
	<rect x="195.384" y="509.5" clip-path="url(#SVGID_44_)" fill="#800080" width="400.053" height="2.5"/>
	<rect x="208.935" y="506.5" clip-path="url(#SVGID_44_)" fill="#DDDDDD" width="385.232" height="2.5"/>
	<rect x="208.935" y="506.5" clip-path="url(#SVGID_44_)" fill="#800080" width="385.232" height="2.5"/>
	<rect x="235.718" y="503.5" clip-path="url(#SVGID_44_)" fill="#DDDDDD" width="262.855" height="2.5"/>
	<rect x="235.718" y="503.5" clip-path="url(#SVGID_44_)" fill="#800080" width="262.855" height="2.5"/>
	<rect x="290.713" y="500.5" clip-path="url(#SVGID_44_)" fill="#DDDDDD" width="521.742" height="2.5"/>
	<rect x="290.713" y="500.5" clip-path="url(#SVGID_44_)" fill="#800080" width="521.742" height="2.5"/>
	<rect x="297.117" y="497.5" clip-path="url(#SVGID_44_)" fill="#DDDDDD" width="221.252" height="2.5"/>
	<rect x="297.117" y="497.5" clip-path="url(#SVGID_44_)" fill="#FF0000" width="221.252" height="2.5"/>
	<rect x="297.7" y="494.5" clip-path="url(#SVGID_44_)" fill="#DDDDDD" width="283.922" height="2.5"/>
	<rect x="297.7" y="494.5" clip-path="url(#SVGID_44_)" fill="#FF0000" width="283.922" height="2.5"/>
	<rect x="303.893" y="491.5" clip-path="url(#SVGID_44_)" fill="#DDDDDD" width="79.556" height="2.5"/>
	<rect x="303.893" y="491.5" clip-path="url(#SVGID_44_)" fill="#800080" width="79.556" height="2.5"/>
	<rect x="323.371" y="488.5" clip-path="url(#SVGID_44_)" fill="#DDDDDD" width="64.576" height="2.5"/>
	<rect x="323.371" y="488.5" clip-path="url(#SVGID_44_)" fill="#800080" width="64.576" height="2.5"/>
	<rect x="326.759" y="485.5" clip-path="url(#SVGID_44_)" fill="#DDDDDD" width="227.604" height="2.5"/>
	<rect x="326.759" y="485.5" clip-path="url(#SVGID_44_)" fill="#800080" width="227.604" height="2.5"/>
	<rect x="347.508" y="482.5" clip-path="url(#SVGID_44_)" fill="#DDDDDD" width="175.784" height="2.5"/>
	<rect x="347.508" y="482.5" clip-path="url(#SVGID_44_)" fill="#800080" width="175.784" height="2.5"/>
	<rect x="373.604" y="479.5" clip-path="url(#SVGID_44_)" fill="#DDDDDD" width="279.476" height="2.5"/>
	<rect x="373.604" y="479.5" clip-path="url(#SVGID_44_)" fill="#FF0000" width="279.476" height="2.5"/>
	<rect x="373.762" y="476.5" clip-path="url(#SVGID_44_)" fill="#DDDDDD" width="122.801" height="2.5"/>
	<rect x="373.762" y="476.5" clip-path="url(#SVGID_44_)" fill="#800080" width="122.801" height="2.5"/>
	<line clip-path="url(#SVGID_44_)" x1="371.168" y1="531.5" x2="371.168" y2="463.5"/>
	
		<line clip-path="url(#SVGID_44_)" fill="none" stroke="#000000" stroke-width="2" x1="371.168" y1="531.5" x2="371.168" y2="463.5"/>
	<line clip-path="url(#SVGID_44_)" x1="383.978" y1="531.5" x2="383.978" y2="463.5"/>
	
		<line clip-path="url(#SVGID_44_)" fill="none" stroke="#000000" stroke-width="2" x1="383.978" y1="531.5" x2="383.978" y2="463.5"/>
</g>
<g>
	<defs>
		<rect id="SVGID_49_" x="10" y="531.5" width="671" height="75"/>
	</defs>
	<clipPath id="SVGID_50_">
		<use xlink:href="#SVGID_49_"  overflow="visible"/>
	</clipPath>
	<g clip-path="url(#SVGID_50_)">
		<text transform="matrix(1 0 0 1 -369.1885 602.5)" font-family="'Helvetica'" font-size="18">5.0KB</text>
	</g>
	<rect x="-80.016" y="566.5" clip-path="url(#SVGID_50_)" width="1" height="15"/>
	<g clip-path="url(#SVGID_50_)">
		<text transform="matrix(1 0 0 1 -109.5386 602.5)" font-family="'Helvetica'" font-size="18">10.0KB</text>
	</g>
	<rect x="184.639" y="566.5" clip-path="url(#SVGID_50_)" width="1" height="15"/>
	<g clip-path="url(#SVGID_50_)">
		<text transform="matrix(1 0 0 1 155.1167 602.5)" font-family="'Helvetica-Bold'" font-size="18">15.0KB</text>
	</g>
	<rect x="449.295" y="566.5" clip-path="url(#SVGID_50_)" width="1" height="15"/>
	<g clip-path="url(#SVGID_50_)">
		<text transform="matrix(1 0 0 1 419.772 602.5)" font-family="'Helvetica-Bold'" font-size="18">20.0KB</text>
	</g>
	<rect x="713.95" y="566.5" clip-path="url(#SVGID_50_)" width="1" height="15"/>
	<g clip-path="url(#SVGID_50_)">
		<text transform="matrix(1 0 0 1 684.4277 602.5)" font-family="'Helvetica'" font-size="18">25.0KB</text>
	</g>
	<line clip-path="url(#SVGID_50_)" x1="-609.327" y1="566.5" x2="371.168" y2="566.5"/>
	
		<line clip-path="url(#SVGID_50_)" fill="none" stroke="#FF0000" stroke-width="8" x1="-609.327" y1="566.5" x2="371.168" y2="566.5"/>
	<line clip-path="url(#SVGID_50_)" x1="-609.327" y1="566.5" x2="371.168" y2="566.5"/>
	
		<line clip-path="url(#SVGID_50_)" fill="none" stroke="#FF0000" stroke-width="3" x1="-609.327" y1="566.5" x2="371.168" y2="566.5"/>
	<polygon clip-path="url(#SVGID_50_)" fill="#FF0000" points="-247.128,551.5 -217.128,566.5 -247.128,581.5 	"/>
	<polygon clip-path="url(#SVGID_50_)" fill="#FF0000" points="-51.03,551.5 -21.03,566.5 -51.03,581.5 	"/>
	<polygon clip-path="url(#SVGID_50_)" fill="#FF0000" points="145.069,551.5 175.069,566.5 145.069,581.5 	"/>
	<polygon clip-path="url(#SVGID_50_)" fill="#FF0000" points="341.168,551.5 371.168,566.5 341.168,581.5 	"/>
	<line clip-path="url(#SVGID_50_)" x1="371.168" y1="566.5" x2="383.978" y2="566.5"/>
	
		<line clip-path="url(#SVGID_50_)" fill="none" stroke="#FFA500" stroke-width="8" x1="371.168" y1="566.5" x2="383.978" y2="566.5"/>
	<line clip-path="url(#SVGID_50_)" x1="371.168" y1="566.5" x2="383.978" y2="566.5"/>
	
		<line clip-path="url(#SVGID_50_)" fill="none" stroke="#FFA500" stroke-width="3" x1="371.168" y1="566.5" x2="383.978" y2="566.5"/>
	<polygon clip-path="url(#SVGID_50_)" fill="#FFA500" points="343.73,551.5 373.73,566.5 343.73,581.5 	"/>
	<polygon clip-path="url(#SVGID_50_)" fill="#FFA500" points="346.292,551.5 376.292,566.5 346.292,581.5 	"/>
	<polygon clip-path="url(#SVGID_50_)" fill="#FFA500" points="348.854,551.5 378.854,566.5 348.854,581.5 	"/>
	<polygon clip-path="url(#SVGID_50_)" fill="#FFA500" points="351.416,551.5 381.416,566.5 351.416,581.5 	"/>
	<polygon clip-path="url(#SVGID_50_)" fill="#FFA500" points="353.978,551.5 383.978,566.5 353.978,581.5 	"/>
	<line clip-path="url(#SVGID_50_)" x1="383.978" y1="566.5" x2="1364.473" y2="566.5"/>
	
		<line clip-path="url(#SVGID_50_)" fill="none" stroke="#808080" stroke-width="8" x1="383.978" y1="566.5" x2="1364.473" y2="566.5"/>
	<line clip-path="url(#SVGID_50_)" x1="383.978" y1="566.5" x2="1364.473" y2="566.5"/>
	
		<line clip-path="url(#SVGID_50_)" fill="none" stroke="#808080" stroke-width="3" x1="383.978" y1="566.5" x2="1364.473" y2="566.5"/>
	<polygon clip-path="url(#SVGID_50_)" fill="#808080" points="550.076,551.5 580.077,566.5 550.076,581.5 	"/>
	<polygon clip-path="url(#SVGID_50_)" fill="#808080" points="746.176,551.5 776.176,566.5 746.176,581.5 	"/>
	<line clip-path="url(#SVGID_50_)" x1="371.168" y1="551.5" x2="371.168" y2="586.5"/>
	
		<line clip-path="url(#SVGID_50_)" fill="none" stroke="#000000" stroke-width="2" x1="371.168" y1="551.5" x2="371.168" y2="586.5"/>
	<g clip-path="url(#SVGID_50_)">
		<text transform="matrix(1 0 0 1 328.6392 549.5)" font-family="'Helvetica'" font-size="18">breakpoint</text>
	</g>
	<line clip-path="url(#SVGID_50_)" x1="383.978" y1="551.5" x2="383.978" y2="586.5"/>
	
		<line clip-path="url(#SVGID_50_)" fill="none" stroke="#000000" stroke-width="2" x1="383.978" y1="551.5" x2="383.978" y2="586.5"/>
</g>
</svg>
